# xmcd
#
# Track frame offsets:
#	150
#	22270
#	45275
#	70955
#	94002
#	116745
#	136990
#	155642
#	181720
#	203617
#	229025
#	249075
#	272137
#	292922
#
# Disc length: 4203 seconds
#
# Revision: 1
# Processed by: cddbd v1.5.1PL0 Copyright (c) Steve Scherf et al.
# Submitted via: CDex 1.50Beta5
#
DISCID=ba10690e
DTITLE=やしきたかじん - YASHIKI TAKAJIN ANTHOLOGY Disc 2
DYEAR=2001
DGENRE=Pop
TTITLE0=愛することを学ぶのに
TTITLE1=雨の日はバラードで
TTITLE2=やっぱ好きやねん(new version’96)
TTITLE3=ICHIZU(new version’96)
TTITLE4=未練〜STILL〜(new version’96)
TTITLE5=東京
TTITLE6=あんた(new version’96)
TTITLE7=明日になれば(new version’96)
TTITLE8=なめとんか(new version’96)
TTITLE9=大阪恋物語(new version’96)
TTITLE10=さよならが言えるまで
TTITLE11=たった独りのアンコール
TTITLE12=そんな女
TTITLE13=幸せをもう一度
EXTD=
EXTT0=
EXTT1=
EXTT2=
EXTT3=
EXTT4=
EXTT5=
EXTT6=
EXTT7=
EXTT8=
EXTT9=
EXTT10=
EXTT11=
EXTT12=
EXTT13=
PLAYORDER=
